<?xml version="1.0" encoding="UTF-8" standalone="no"?>
<!-- Created with Inkscape (http://www.inkscape.org/) -->

<svg
   inkscape:export-ydpi="90.000000"
   inkscape:export-xdpi="90.000000"
   width="16"
   height="16"
   id="svg11300"
   sodipodi:version="0.32"
   inkscape:version="1.2.2 (b0a8486541, 2022-12-01)"
   sodipodi:docname="cronomix-trash-symbolic.svg"
   inkscape:output_extension="org.inkscape.output.svg.inkscape"
   version="1.0"
   style="display:inline;enable-background:new"
   xmlns:inkscape="http://www.inkscape.org/namespaces/inkscape"
   xmlns:sodipodi="http://sodipodi.sourceforge.net/DTD/sodipodi-0.dtd"
   xmlns="http://www.w3.org/2000/svg"
   xmlns:svg="http://www.w3.org/2000/svg"
   xmlns:rdf="http://www.w3.org/1999/02/22-rdf-syntax-ns#"
   xmlns:cc="http://creativecommons.org/ns#"
   xmlns:dc="http://purl.org/dc/elements/1.1/">
  <sodipodi:namedview
     stroke="#ef2929"
     fill="#f57900"
     id="base"
     pagecolor="#8c8c8c"
     bordercolor="#000000"
     borderopacity="1"
     inkscape:pageopacity="0"
     inkscape:pageshadow="2"
     inkscape:zoom="22.627417"
     inkscape:cx="0.26516504"
     inkscape:cy="9.6122328"
     inkscape:current-layer="layer1"
     showgrid="true"
     inkscape:grid-bbox="true"
     inkscape:document-units="px"
     inkscape:showpageshadow="false"
     inkscape:window-width="1440"
     inkscape:window-height="739"
     inkscape:window-x="0"
     inkscape:window-y="32"
     width="400px"
     height="300px"
     inkscape:snap-nodes="true"
     inkscape:snap-bbox="true"
     gridtolerance="10000"
     inkscape:object-nodes="true"
     inkscape:snap-grids="true"
     showguides="true"
     inkscape:guide-bbox="true"
     inkscape:window-maximized="1"
     inkscape:bbox-nodes="true"
     inkscape:bbox-paths="true"
     inkscape:snap-bbox-edge-midpoints="true"
     inkscape:snap-bbox-midpoints="true"
     objecttolerance="10000"
     guidetolerance="10000"
     borderlayer="true"
     showborder="true"
     guidecolor="#ff0b00"
     guideopacity="1"
     guidehicolor="#051fff"
     guidehiopacity="0.66666667"
     inkscape:snap-smooth-nodes="true"
     inkscape:object-paths="true"
     inkscape:snap-global="true"
     inkscape:snap-center="true"
     inkscape:snap-others="true"
     inkscape:measure-start="0,0"
     inkscape:measure-end="0,0"
     inkscape:snap-midpoints="true"
     inkscape:snap-object-midpoints="true"
     inkscape:snap-intersection-paths="true"
     inkscape:pagecheckerboard="0"
     inkscape:deskcolor="#8c8c8c">
    <inkscape:grid
       type="xygrid"
       id="grid3123"
       empspacing="4"
       visible="true"
       enabled="true"
       snapvisiblegridlinesonly="true"
       color="#005be5"
       opacity="0.26666667" />
  </sodipodi:namedview>
  <defs
     id="defs3">
    <linearGradient
       id="linearGradient5606"
       inkscape:swatch="solid">
      <stop
         id="stop5608"
         offset="0"
         style="stop-color:#000000;stop-opacity:1;" />
    </linearGradient>
  </defs>
  <metadata
     id="metadata4">
    <rdf:RDF>
      <cc:Work
         rdf:about="">
        <dc:format>image/svg+xml</dc:format>
        <dc:type
           rdf:resource="http://purl.org/dc/dcmitype/StillImage" />
        <dc:creator>
          <cc:Agent>
            <dc:title />
          </cc:Agent>
        </dc:creator>
        <dc:source />
        <cc:license
           rdf:resource="" />
        <dc:subject>
          <rdf:Bag />
        </dc:subject>
        <dc:date />
        <dc:rights>
          <cc:Agent>
            <dc:title />
          </cc:Agent>
        </dc:rights>
        <dc:publisher>
          <cc:Agent>
            <dc:title />
          </cc:Agent>
        </dc:publisher>
        <dc:identifier />
        <dc:relation />
        <dc:language />
        <dc:coverage />
        <dc:description />
        <dc:contributor>
          <cc:Agent>
            <dc:title />
          </cc:Agent>
        </dc:contributor>
      </cc:Work>
      <cc:Work
         rdf:about="">
        <dc:format>image/svg+xml</dc:format>
        <dc:type
           rdf:resource="http://purl.org/dc/dcmitype/StillImage" />
      </cc:Work>
    </rdf:RDF>
  </metadata>
  <g
     style="display:inline"
     inkscape:groupmode="layer"
     inkscape:label="Base"
     id="layer1"
     transform="translate(0,-284)">
    <path
       id="path522"
       style="fill:#bebebe;fill-opacity:1;stroke:none;stroke-width:1.44338;stroke-linecap:round;stroke-linejoin:round;stroke-opacity:1"
       d="M 4 289 L 4 297 C 4 298.108 4.8920042 299 6 299 L 11 299 C 12.107996 299 13 298.108 13 297 L 13 289 L 4 289 z M 6.5 290 C 6.7769994 290 7 290.26721 7 290.59961 L 7 296.40039 C 7 296.73279 6.7769994 297 6.5 297 C 6.2230006 297 6 296.73279 6 296.40039 L 6 290.59961 C 6 290.26721 6.2230006 290 6.5 290 z M 8.5 290 C 8.7769994 290 9 290.26721 9 290.59961 L 9 296.40039 C 9 296.73279 8.7769994 297 8.5 297 C 8.2230006 297 8 296.73279 8 296.40039 L 8 290.59961 C 8 290.26721 8.2230006 290 8.5 290 z M 10.5 290 C 10.777 290 11 290.26721 11 290.59961 L 11 296.40039 C 11 296.73279 10.777 297 10.5 297 C 10.223 297 10 296.73279 10 296.40039 L 10 290.59961 C 10 290.26721 10.223 290 10.5 290 z " />
    <path
       style="fill:#bebebe;fill-opacity:1;stroke:none;stroke-width:1.44338;stroke-linecap:round;stroke-linejoin:round;stroke-opacity:1"
       d="m 7,285 c -0.5539982,0 -1,0.446 -1,1 H 4 c -0.5539984,0 -1,0.446 -1,1 v 1 h 1 9 1 v -1 c 0,-0.554 -0.446003,-1 -1,-1 h -2 c 0,-0.554 -0.446003,-1 -1,-1 z"
       id="rect1258"
       sodipodi:nodetypes="scssccccsscss" />
  </g>
</svg>
