<?xml version="1.0" encoding="UTF-8" standalone="no"?>
<!-- Created with Inkscape (http://www.inkscape.org/) -->

<svg
   xmlns:osb="http://www.openswatchbook.org/uri/2009/osb"
   xmlns:dc="http://purl.org/dc/elements/1.1/"
   xmlns:cc="http://creativecommons.org/ns#"
   xmlns:rdf="http://www.w3.org/1999/02/22-rdf-syntax-ns#"
   xmlns:svg="http://www.w3.org/2000/svg"
   xmlns="http://www.w3.org/2000/svg"
   xmlns:sodipodi="http://sodipodi.sourceforge.net/DTD/sodipodi-0.dtd"
   xmlns:inkscape="http://www.inkscape.org/namespaces/inkscape"
   inkscape:export-ydpi="90.000000"
   inkscape:export-xdpi="90.000000"
   width="16"
   height="16"
   id="svg11300"
   sodipodi:version="0.32"
   inkscape:version="0.92.2 (5c3e80d, 2017-08-06)"
   sodipodi:docname="timepp-strike-symbolic.svg"
   inkscape:output_extension="org.inkscape.output.svg.inkscape"
   version="1.0"
   style="display:inline;enable-background:new">
  <sodipodi:namedview
     stroke="#ef2929"
     fill="#f57900"
     id="base"
     pagecolor="#8c8c8c"
     bordercolor="#ff5e00"
     borderopacity="1"
     inkscape:pageopacity="0"
     inkscape:pageshadow="2"
     inkscape:zoom="22.627417"
     inkscape:cx="-1.5089753"
     inkscape:cy="5.6154875"
     inkscape:current-layer="layer1"
     showgrid="true"
     inkscape:grid-bbox="true"
     inkscape:document-units="px"
     inkscape:showpageshadow="false"
     inkscape:window-width="1600"
     inkscape:window-height="846"
     inkscape:window-x="0"
     inkscape:window-y="26"
     width="400px"
     height="300px"
     inkscape:snap-nodes="true"
     inkscape:snap-bbox="true"
     gridtolerance="10000"
     inkscape:object-nodes="true"
     inkscape:snap-grids="true"
     showguides="true"
     inkscape:guide-bbox="true"
     inkscape:window-maximized="1"
     inkscape:bbox-nodes="true"
     inkscape:bbox-paths="false"
     inkscape:snap-bbox-edge-midpoints="false"
     inkscape:snap-bbox-midpoints="false"
     objecttolerance="10000"
     guidetolerance="10000"
     borderlayer="true"
     showborder="true"
     guidecolor="#ff0b00"
     guideopacity="1"
     guidehicolor="#001aff"
     guidehiopacity="0.49803922"
     inkscape:snap-smooth-nodes="true"
     inkscape:object-paths="false"
     inkscape:snap-global="true"
     inkscape:snap-center="true"
     inkscape:snap-others="false"
     inkscape:measure-start="0,0"
     inkscape:measure-end="0,0">
    <inkscape:grid
       type="xygrid"
       id="grid3123"
       empspacing="4"
       visible="true"
       enabled="true"
       snapvisiblegridlinesonly="true" />
  </sodipodi:namedview>
  <defs
     id="defs3">
    <linearGradient
       id="linearGradient5606"
       osb:paint="solid">
      <stop
         id="stop5608"
         offset="0"
         style="stop-color:#000000;stop-opacity:1;" />
    </linearGradient>
  </defs>
  <metadata
     id="metadata4">
    <rdf:RDF>
      <cc:Work
         rdf:about="">
        <dc:format>image/svg+xml</dc:format>
        <dc:type
           rdf:resource="http://purl.org/dc/dcmitype/StillImage" />
        <dc:creator>
          <cc:Agent>
            <dc:title />
          </cc:Agent>
        </dc:creator>
        <dc:source />
        <cc:license
           rdf:resource="" />
        <dc:title />
        <dc:subject>
          <rdf:Bag />
        </dc:subject>
        <dc:date />
        <dc:rights>
          <cc:Agent>
            <dc:title />
          </cc:Agent>
        </dc:rights>
        <dc:publisher>
          <cc:Agent>
            <dc:title />
          </cc:Agent>
        </dc:publisher>
        <dc:identifier />
        <dc:relation />
        <dc:language />
        <dc:coverage />
        <dc:description />
        <dc:contributor>
          <cc:Agent>
            <dc:title />
          </cc:Agent>
        </dc:contributor>
      </cc:Work>
      <cc:Work
         rdf:about="">
        <dc:format>image/svg+xml</dc:format>
        <dc:type
           rdf:resource="http://purl.org/dc/dcmitype/StillImage" />
      </cc:Work>
    </rdf:RDF>
  </metadata>
  <g
     style="display:inline"
     inkscape:groupmode="layer"
     inkscape:label="Base"
     id="layer1"
     transform="translate(0,-284)">
    <path
       style="color:#000000;font-style:normal;font-variant:normal;font-weight:normal;font-stretch:normal;font-size:medium;line-height:normal;font-family:sans-serif;font-variant-ligatures:normal;font-variant-position:normal;font-variant-caps:normal;font-variant-numeric:normal;font-variant-alternates:normal;font-feature-settings:normal;text-indent:0;text-align:start;text-decoration:none;text-decoration-line:none;text-decoration-style:solid;text-decoration-color:#000000;letter-spacing:normal;word-spacing:normal;text-transform:none;writing-mode:lr-tb;direction:ltr;text-orientation:mixed;dominant-baseline:auto;baseline-shift:baseline;text-anchor:start;white-space:normal;shape-padding:0;clip-rule:nonzero;display:inline;overflow:visible;visibility:visible;opacity:1;isolation:auto;mix-blend-mode:normal;color-interpolation:sRGB;color-interpolation-filters:linearRGB;solid-color:#000000;solid-opacity:1;vector-effect:none;fill:#bebebe;fill-opacity:1;fill-rule:nonzero;stroke:none;stroke-width:2;stroke-linecap:butt;stroke-linejoin:miter;stroke-miterlimit:4;stroke-dasharray:none;stroke-dashoffset:0;stroke-opacity:1;color-rendering:auto;image-rendering:auto;shape-rendering:auto;text-rendering:auto;enable-background:accumulate"
       d="M 8.1582031 1.0019531 C 7.2334693 0.98415318 6.2394001 1.103835 5.3945312 1.703125 C 4.5496624 2.302425 4.0234375 3.3986775 4.0234375 4.7421875 C 4.0234375 5.6311098 4.2936748 6.3978721 4.7128906 7 L 8.6289062 7 C 7.8322486 6.767783 7.1223255 6.5284318 6.7011719 6.2226562 C 6.2502755 5.8952762 6.0234375 5.6041875 6.0234375 4.7421875 C 6.0234375 3.8431475 6.2450493 3.5522344 6.5527344 3.3339844 C 6.8604195 3.1157344 7.424069 2.9885631 8.1191406 3.0019531 C 8.8142123 3.0153531 9.5999731 3.1559644 10.277344 3.3027344 C 10.616028 3.3761344 10.927891 3.4502656 11.203125 3.5097656 C 11.478359 3.5692656 11.67745 3.625 12 3.625 L 12 1.625 C 12.07335 1.625 11.867636 1.6070875 11.625 1.5546875 C 11.382364 1.5021875 11.063365 1.4261362 10.701172 1.3476562 C 9.9767866 1.1906963 9.0829369 1.0197831 8.1582031 1.0019531 z M 2 8 L 2 10 L 10.642578 10 C 10.889031 10.231166 11 10.507493 11 11.095703 C 11 12.082833 10.747935 12.399541 10.355469 12.650391 C 9.963002 12.901241 9.258329 13.028836 8.4316406 12.992188 C 7.6049522 12.955488 6.6894213 12.774563 5.9179688 12.595703 C 5.5322423 12.506303 5.1824163 12.419669 4.8808594 12.349609 C 4.5793025 12.279509 4.3845991 12.212891 4.0273438 12.212891 L 4.0273438 14.212891 C 3.9189301 14.212891 4.1590577 14.233975 4.4296875 14.296875 C 4.7003174 14.359775 5.0582628 14.450202 5.4667969 14.544922 C 6.2838648 14.734362 7.2992994 14.944014 8.3417969 14.990234 C 9.3842942 15.036434 10.48638 14.941325 11.433594 14.335938 C 12.380807 13.730498 13 12.557723 13 11.095703 C 13 10.704536 12.938125 10.338716 12.833984 10 L 15 10 L 15 8 L 2 8 z "
       transform="translate(0,284)"
       id="path856" />
  </g>
</svg>
