<?xml version="1.0" encoding="UTF-8" standalone="no"?>
<!-- Created with Inkscape (http://www.inkscape.org/) -->

<svg
   xmlns:dc="http://purl.org/dc/elements/1.1/"
   xmlns:cc="http://creativecommons.org/ns#"
   xmlns:rdf="http://www.w3.org/1999/02/22-rdf-syntax-ns#"
   xmlns:svg="http://www.w3.org/2000/svg"
   xmlns="http://www.w3.org/2000/svg"
   xmlns:sodipodi="http://sodipodi.sourceforge.net/DTD/sodipodi-0.dtd"
   xmlns:inkscape="http://www.inkscape.org/namespaces/inkscape"
   inkscape:export-ydpi="90.000000"
   inkscape:export-xdpi="90.000000"
   width="16"
   height="16"
   id="svg11300"
   sodipodi:version="0.32"
   inkscape:version="0.91 r13725"
   sodipodi:docname="pomodoro-symbolic.svg"
   inkscape:output_extension="org.inkscape.output.svg.inkscape"
   version="1.0"
   style="display:inline;enable-background:new"
   viewBox="0 0 16 16">
  <sodipodi:namedview
     stroke="#ef2929"
     fill="#f57900"
     id="base"
     pagecolor="#8c8c8c"
     bordercolor="#ff5e00"
     borderopacity="1"
     inkscape:pageopacity="0"
     inkscape:pageshadow="2"
     inkscape:zoom="17.15625"
     inkscape:cx="8.1916216"
     inkscape:cy="3.8969785"
     inkscape:current-layer="svg11300"
     showgrid="true"
     inkscape:grid-bbox="true"
     inkscape:document-units="px"
     inkscape:showpageshadow="false"
     inkscape:window-width="1600"
     inkscape:window-height="852"
     inkscape:window-x="0"
     inkscape:window-y="26"
     width="400px"
     height="300px"
     inkscape:snap-nodes="true"
     inkscape:snap-bbox="true"
     gridtolerance="10000"
     inkscape:object-nodes="true"
     inkscape:snap-grids="true"
     showguides="true"
     inkscape:guide-bbox="true"
     inkscape:window-maximized="1"
     inkscape:bbox-nodes="true"
     inkscape:bbox-paths="false"
     inkscape:snap-bbox-edge-midpoints="false"
     inkscape:snap-bbox-midpoints="false"
     objecttolerance="10000"
     guidetolerance="10000"
     borderlayer="true"
     showborder="true"
     guidecolor="#ff0b00"
     guideopacity="1"
     guidehicolor="#001aff"
     guidehiopacity="0.49803922"
     inkscape:snap-smooth-nodes="true"
     inkscape:object-paths="true"
     inkscape:snap-global="true"
     inkscape:pagecheckerboard="false"
     inkscape:snap-perpendicular="true"
     inkscape:snap-tangential="true"
     inkscape:snap-center="false">
    <inkscape:grid
       type="xygrid"
       id="grid3123"
       empspacing="4"
       visible="true"
       enabled="true"
       snapvisiblegridlinesonly="true" />
  </sodipodi:namedview>
  <defs
     id="defs3" />
  <metadata
     id="metadata4">
    <rdf:RDF>
      <cc:Work
         rdf:about="">
        <dc:format>image/svg+xml</dc:format>
        <dc:type
           rdf:resource="http://purl.org/dc/dcmitype/StillImage" />
        <dc:creator>
          <cc:Agent>
            <dc:title />
          </cc:Agent>
        </dc:creator>
        <dc:source />
        <cc:license
           rdf:resource="" />
        <dc:title />
        <dc:subject>
          <rdf:Bag />
        </dc:subject>
        <dc:date />
        <dc:rights>
          <cc:Agent>
            <dc:title />
          </cc:Agent>
        </dc:rights>
        <dc:publisher>
          <cc:Agent>
            <dc:title />
          </cc:Agent>
        </dc:publisher>
        <dc:identifier />
        <dc:relation />
        <dc:language />
        <dc:coverage />
        <dc:description />
        <dc:contributor>
          <cc:Agent>
            <dc:title />
          </cc:Agent>
        </dc:contributor>
      </cc:Work>
      <cc:Work
         rdf:about="">
        <dc:format>image/svg+xml</dc:format>
        <dc:type
           rdf:resource="http://purl.org/dc/dcmitype/StillImage" />
      </cc:Work>
    </rdf:RDF>
  </metadata>
  <path
     style="color:#000000;font-style:normal;font-variant:normal;font-weight:normal;font-stretch:normal;font-size:medium;line-height:normal;font-family:sans-serif;text-indent:0;text-align:start;text-decoration:none;text-decoration-line:none;text-decoration-style:solid;text-decoration-color:#000000;letter-spacing:normal;word-spacing:normal;text-transform:none;direction:ltr;block-progression:tb;writing-mode:lr-tb;baseline-shift:baseline;text-anchor:start;white-space:normal;clip-rule:nonzero;display:inline;overflow:visible;visibility:visible;opacity:1;isolation:auto;mix-blend-mode:normal;color-interpolation:sRGB;color-interpolation-filters:linearRGB;solid-color:#000000;solid-opacity:1;fill:#bebebe;fill-opacity:1;fill-rule:nonzero;stroke:none;stroke-width:2;stroke-linecap:round;stroke-linejoin:miter;stroke-miterlimit:4;stroke-dasharray:none;stroke-dashoffset:0;stroke-opacity:1;color-rendering:auto;image-rendering:auto;shape-rendering:auto;text-rendering:auto;enable-background:accumulate"
     d="M 8 0 C 6.059914 0 4.5846455 1.5098006 3.5878906 3.3183594 C 2.5911346 5.126918 2 7.373989 2 9.5 C 2 11.626011 2.6376946 13.304324 3.7617188 14.412109 C 4.8857419 15.519895 6.4220461 16 8 16 C 9.5779537 16 11.114258 15.519895 12.238281 14.412109 C 13.362305 13.304324 14 11.626011 14 9.5 C 14 7.373989 13.408865 5.126918 12.412109 3.3183594 C 11.415354 1.5098006 9.9400858 0 8 0 z M 8 2 C 8.8213373 2 9.847268 2.8082603 10.660156 4.2832031 C 11.20818 5.2775617 11.608009 6.512504 11.822266 7.7441406 C 11.031913 8.3434125 10.066533 8.7571713 9 8.9199219 L 9 7.9375 C 8.6719911 7.976761 8.3385081 8 8 8 L 8 9 C 7.6578371 9 7.3250315 8.9695209 7 8.9199219 L 7 7.9375 C 6.6715478 7.8981863 6.3505693 7.8358546 6.0351562 7.7597656 C 6.0237008 7.7569982 6.0114384 7.756717 6 7.7539062 L 6 8.6835938 C 5.6509236 8.570928 5.3149261 8.4342473 5 8.2675781 L 5 7.4414062 C 4.7617109 7.3499256 4.5355996 7.2376075 4.3085938 7.1269531 C 4.5378483 6.1066716 4.8837341 5.1107895 5.3398438 4.2832031 C 6.1527325 2.8082603 7.1786623 2 8 2 z M 11.962891 10.001953 C 11.874583 11.433633 11.446907 12.384214 10.833984 12.988281 C 10.609045 13.209972 10.343464 13.382561 10.060547 13.53125 L 8 12.5 L 5.9394531 13.53125 C 5.6565358 13.382561 5.3909556 13.209972 5.1660156 12.988281 C 4.553375 12.384491 4.1257075 11.43446 4.0371094 10.003906 C 5.2111621 10.635104 6.5639747 11 8 11 C 9.4214459 11 10.796436 10.621777 11.962891 10.001953 z "
     id="path5029" />
</svg>
